<svg xmlns="http://www.w3.org/2000/svg" width="322.013" height="322.279" viewBox="0 0 322.013 322.279">
  <g id="Group_7085" data-name="Group 7085" transform="translate(-429.985 -599.843)">
    <rect id="Rectangle_10157" data-name="Rectangle 10157" width="320" height="320" transform="translate(431 601)" fill="none"/>
    <path id="Path_6293" data-name="Path 6293" d="M-706.15-516.749a158.259,158.259,0,0,0-46.94-70.4c-2.456-2.15-4.595-2.309-6.343-.471-1.729,1.82-1.357,4.249,1,6.494,1.072,1.027,2.163,2.035,3.254,3.046,2.307,2.139,4.7,4.352,6.893,6.691,2.871,3.057,5.643,6.287,8.322,9.41,1.163,1.352,2.323,2.7,3.493,4.047l.327.375-.495,2.3-38.626,10.621-.306-.881c-9.9-28.4-22.415-48.738-39.386-64l-3.193-2.871,6.122,1.724A56.7,56.7,0,0,1-802-607.207c7.311,3.6,14.638,7.463,21.729,11.2l7.21,3.789c2.626,1.375,4.917,1.035,6.119-.913,1.272-2.051.6-4.352-1.708-5.859C-804.77-622.579-844.4-630.6-886.43-622.835c-36.383,6.72-67.074,24.69-91.227,53.4-29.753,35.374-41.9,76.942-36.1,123.547,3.56,28.619,14.8,54.836,33.4,77.919l6.5,8.083-3.062,1.163c-1.072.4-2.019.75-2.942,1.152-10.451,4.539-16.272,12.158-17.307,22.647-.484,4.909-.492,9.971-.5,14.87,0,1.548-.005,3.1-.021,4.645-.034,3.076.327,4.77,1.211,5.662s2.509,1.264,5.6,1.264q45.8-.008,91.615-.01l.513,0a9.487,9.487,0,0,0,1.793-.083,3.937,3.937,0,0,0,3.39-4.227,3.706,3.706,0,0,0-3.751-3.664,30.265,30.265,0,0,0-3.033-.056l-1.24.01-7.779,0-4.422,0v-1c0-2.1-.024-4.15-.045-6.175-.045-4.475-.091-8.7.093-12.986.484-11.4,5.906-19.337,16.115-23.586,3.94-1.639,7.92-3.179,11.9-4.723,3.357-1.3,6.715-2.6,10.049-3.959a4.193,4.193,0,0,1,5.183,1.08c3.262,3.349,6.681,6.659,9.99,9.862l.192.184c3.06,2.961,4.983,2.948,7.923-.05,1.29-1.317,2.559-2.653,3.828-3.991,2.027-2.131,4.055-4.265,6.156-6.321.83-.814,2.772-1.7,4.108-1.186l1.3.5c7.75,3,15.764,6.109,23.479,9.57a23.069,23.069,0,0,1,12.611,14.532c1.929,6,1.777,12.2,1.628,18.185-.072,2.942-.146,5.986.019,9.009l.056,1.051-53.424.011h-6.805q-10.767,0-21.526.032a4.989,4.989,0,0,0-4.108,1.751,3.6,3.6,0,0,0-.444,3.312c.644,2.091,2.136,2.945,5.153,2.945h.034q23.881-.044,47.754-.027l15.194,0,95.976-.01c4.509,0,5.821-1.277,5.84-5.678.005-1.562.024-3.126.043-4.69.048-4.174.1-8.493-.083-12.715-.506-11.935-6.1-20.507-16.639-25.48-1.237-.585-2.509-1.1-3.847-1.655l-3.211-1.336.82-1.032c1.085-1.359,2.171-2.685,3.243-4,2.3-2.818,4.478-5.478,6.51-8.293,18.039-25.017,28.2-52.963,30.2-83.062A158.337,158.337,0,0,0-706.15-516.749ZM-852.508-617.21l1.083.1a47.545,47.545,0,0,1,16.756,4.741c10.312,4.975,19.483,12.8,28.031,23.923,9.144,11.9,16.567,26.148,22.686,43.547l.4,1.125-1.179.191a427.525,427.525,0,0,1-66.771,5.417l-1,.005Zm-.013,87.5,3.94-.226c2.15-.13,4.265-.258,6.38-.309a394.5,394.5,0,0,0,56.48-5.1c3.406-.567,5.077.561,5.967,4.031a265.27,265.27,0,0,1,8.04,57.34,9.69,9.69,0,0,1-.051,1.152l-.1,1.485-1.838.12c-.678.053-1.317.1-1.958.1l-5.632.005q-7.427,0-14.857.008-12.8,0-25.6-.056a6.6,6.6,0,0,1-4.281-1.487c-7.191-6.909-15.072-10.733-24.1-11.69a4.568,4.568,0,0,1-1.272-.383c-.146-.061-.3-.125-.455-.181l-.668-.234Zm31.152,103.372a6.466,6.466,0,0,1,5.052,6.258c.255,3.507-1.407,6.034-4.941,7.5l-1.381.577v-14.7Zm-9.913-39.836c6.5,7.08,9.5,16.788,8.452,27.345l-.106,1.078-1.064-.194c-9.134-1.658-12.717-8.527-14.822-14.327l-.167-.465c-.862-2.421-1.458-3.8-3.608-4.137-2.28-.356-3.506.9-5.241,3-5.8,7.013-13.76,11.283-25.81,13.845-3.432.732-6.965,1.157-10.382,1.567-1.561.186-3.121.375-4.674.591l-1.035.144-.1-1.04c-.977-10.536,1.953-20.193,8.248-27.2,6.1-6.792,14.979-10.61,24.993-10.749A33.09,33.09,0,0,1-831.283-466.177Zm-58.6,39.3v14.8l-1.327-.463c-3.491-1.221-5.239-3.589-5.193-7.035.043-3.472,1.748-5.717,5.209-6.867Zm29.253-61.115c.1,2.339-.865,3.483-3.219,3.826a39.56,39.56,0,0,0-22.383,11.217,6.5,6.5,0,0,1-4.142,1.785q-13.968.088-27.941.075-7.387,0-14.768-.011l-5.284,0a11.855,11.855,0,0,1-1.62-.152l-1.9-.229.075-.961c.207-2.684.37-5.364.532-8.032.354-5.88.724-11.959,1.594-17.86,1-6.782,2.373-13.609,3.7-20.209.854-4.249,1.705-8.5,2.471-12.763.612-3.416,2.331-4.6,5.917-4.073l.687.1c7.832,1.141,15.934,2.325,23.923,2.974,8.934.724,18.044,1.235,26.85,1.73q5.671.319,11.342.652l4.145.25-.016,35.606C-860.692-492.04-860.711-490.016-860.628-487.991Zm-57.651,73.971-1.093-.152a10.475,10.475,0,0,1-7.737-5.473,32.537,32.537,0,0,1-2.23-4.73c-.216-.53-.431-1.059-.657-1.58a4.582,4.582,0,0,0-3.39-2.977,4.017,4.017,0,0,0-3.648,1.639c-8.926,10.7-21.18,12.72-31.993,13.289l-.91.048-.128-.9c-1.378-9.538,3.469-19.736,11.525-24.245,10.073-5.64,20.281-5.406,29.516.681,7.545,4.967,11.172,12.808,10.783,23.3Zm1.027,11.092c1.828,1.578,2.754,3.222,2.745,4.893s-.934,3.283-2.753,4.824l-1.642,1.389v-12.523Zm-23.322,27.9c-1.4.088-2.892.184-4.427.184-4.142,0-8.609-.689-12.465-4.033a16.546,16.546,0,0,1-6.082-11.991c-.157-3.243-.123-6.441-.085-9.831.016-1.487.034-3,.034-4.539v-.862l.854-.125c11.4-1.671,19.629-4.778,25.9-9.777l.644-.514,3.147,2.693c2.477,2.115,4.861,4.148,7.183,6.25a4.3,4.3,0,0,1,1.022,2.919l.024,1.953c.045,3.86.091,7.854-.072,11.786A16.84,16.84,0,0,1-940.574-375.03Zm-.623,15.881a11.556,11.556,0,0,0-2.253,2.519l-.774,1.317-.894-1.237a13.064,13.064,0,0,0-2.123-2.131c-1.9-1.639-4.047-3.493-3.1-7.292l.189-.756h12.127l.093.894C-937.584-362.483-939.5-360.712-941.2-359.15Zm-28.779-45.2v12.523l-1.642-1.389c-1.819-1.54-2.748-3.164-2.753-4.824s.918-3.315,2.746-4.893Zm106.28-212.68a6.294,6.294,0,0,1,1.264-.037l1.6.013v78.911l-1.006-.008a424.217,424.217,0,0,1-66.638-5.465l-1.133-.186.346-1.1a145.073,145.073,0,0,1,12.651-28.574c7.572-13.226,15.471-22.928,24.865-30.54C-882.9-611.176-873.723-615.433-863.7-617.027Zm-113.618,60.2c20.816-27.079,46.623-45.008,78.9-54.815l4.406-1.338-3.459,3.041c-17.709,15.585-30.133,35.444-40.286,64.387l-.309.878-40.155-10.975Zm-29.622,84.483a149.355,149.355,0,0,1,23.593-75.836l.4-.628,42.571,12.042-.266.958a260.148,260.148,0,0,0-9.046,63.525l-.021.971h-57.268Zm27.446,91.937a142.779,142.779,0,0,1-24.054-54.578c-1.256-5.989-2.011-11.941-2.809-18.243-.359-2.836-.721-5.7-1.136-8.586l-.165-1.139h57.723l.663,11.092-.631.282c-1.508.67-3.014,1.28-4.5,1.881a57.739,57.739,0,0,0-8.83,4.158c-9.562,5.928-14.678,15.221-15.2,27.619-.053,1.317-.053,2.509,0,3.65a11.908,11.908,0,0,1-2.631,8.586,12.377,12.377,0,0,0-1.913,11.906,13.376,13.376,0,0,0,9.511,8.671,6.026,6.026,0,0,1,3.706,2.927,25.712,25.712,0,0,0,8.841,10.735,4.81,4.81,0,0,1,2.259,2.842,3.458,3.458,0,0,1-.657,2.642c-.873,1.29-2.967,1.828-4.491,1.9-.112.005-.234.008-.365.008a3.911,3.911,0,0,1-2.988-1.035c-1.1-1.346-2.224-2.685-3.339-4.023C-973.53-372.745-976.669-376.5-979.49-380.407Zm61.1,29.048c-3.725,7.439-3.661,15-3.592,23.008a107.3,107.3,0,0,1-.274,10.8l-.085.907h-67.311l.045-1.04c.082-1.971.045-4,.011-5.957-.1-5.606-.2-11.4,2.381-16.953a17.4,17.4,0,0,1,9.591-9.054c2.078-.833,4.158-1.65,6.245-2.466,3.594-1.4,7.188-2.815,10.746-4.315,2.142-.907,3.767-.537,5.435,1.224,1.99,2.1,4.132,4.142,6.2,6.116l1.094,1.043c2.631,2.514,4.664,2.5,7.25-.051,1.107-1.093,2.179-2.221,3.251-3.352,1.362-1.437,2.724-2.871,4.158-4.23.777-.742,2.538-1.639,3.839-1.2,2.522.851,4.973,1.868,7.569,2.943.95.394,1.921.8,2.924,1.205l1,.4Zm41.685-25.738-1.727.644c-7.242,2.7-14.731,5.491-21.9,8.641a58.808,58.808,0,0,0-10.477,6.529,5.866,5.866,0,0,1-3.422,1.442,4.831,4.831,0,0,1-1.993-.476c-2.107-.947-4.262-1.8-6.414-2.647-1.5-.591-3-1.182-4.478-1.8-1.636-.689-2.607-1.745-2.738-2.974-.071-.692.085-2.049,1.945-3.342a27.07,27.07,0,0,0,9.362-11.475,5.369,5.369,0,0,1,3.376-2.53,13.38,13.38,0,0,0,9.578-8.876,13.568,13.568,0,0,0-2.7-12.965,8.251,8.251,0,0,1-1.681-5.092c.1-7.984-.492-14.558-3.7-20.694-5.172-9.9-13.273-15.854-24.08-17.7-2.591-.444-3.584-1.61-3.541-4.156.021-1.416-.077-2.876-.176-4.292-.051-.724-.1-1.447-.136-2.171a2.058,2.058,0,0,1,.16-.812l.34-1.136h46.9l-.351,1.264c-.306,1.1-.652,2.19-1,3.272a35.728,35.728,0,0,0-1.727,6.891c-.365,3.312-.457,6.728-.551,10.033-.061,2.227-.122,4.454-.263,6.673a6.787,6.787,0,0,1-1.7,4.081c-4.294,4.438-5.712,9.594-4.209,15.322a14.245,14.245,0,0,0,11.345,10.914,7.225,7.225,0,0,1,5.837,5A27.112,27.112,0,0,0-876.5-386.992c1.594,1.072,3.254,2.192,3.227,4.9C-873.3-379.412-874.263-378.01-876.706-377.1Zm25.012,6.912a15.868,15.868,0,0,0-3.549,4.209l-.686,1.378-.976-1.192a27.332,27.332,0,0,0-3.193-3.1c-3.249-2.831-6.606-5.757-4.707-11.786l.221-.7h17.019l.181.769C-846.165-375.422-849.1-372.639-851.694-370.186Zm1.838-19.714a49.431,49.431,0,0,1-7.42.63c-5.632,0-11.656-1.314-16.828-6.058-4.653-4.267-7.08-9.253-7.215-14.819-.109-4.507-.082-9.022-.058-13.39.013-1.865.021-3.709.021-5.518v-.772l.745-.194c1.982-.521,3.962-.984,5.92-1.447a97.29,97.29,0,0,0,12.685-3.584,93.222,93.222,0,0,0,11.571-5.733c1.668-.926,3.333-1.849,5.012-2.722l.686-.357,7.912,8.8a3.38,3.38,0,0,0,.338.364c6.338,2.011,5.925,7.668,5.654,11.411-.138,1.908-.183,3.836-.229,5.765a57.4,57.4,0,0,1-1.117,11.97C-834.249-396.879-840.525-391.321-849.856-389.9Zm50.547,30.008a2.744,2.744,0,0,1-2-.663c-4.5-4.677-10.219-6.915-16.271-9.285l-3.786-1.5q-7.455-2.989-14.9-6a4.93,4.93,0,0,1-2.911-4.132,4.8,4.8,0,0,1,1.918-4.525,32.3,32.3,0,0,0,12.635-15.742,4.191,4.191,0,0,1,3-2.323,15.176,15.176,0,0,0,12.765-10.839,15.339,15.339,0,0,0-4.337-16.139c-1.181-1.051-1.37-3.174-1.4-4.036-.053-1.721-.051-3.445-.048-5.167.008-5.611.019-10.908-1.809-16.123-.4-1.141-.809-2.275-1.248-3.5l-1.088-3.028h47.224l-.716,12-.814.109a33.11,33.11,0,0,0-19.451,9.136,33.468,33.468,0,0,0-10.123,22.9,32.888,32.888,0,0,0-.011,3.93,13.061,13.061,0,0,1-2.815,9.432,12.149,12.149,0,0,0-1.737,11.6,13.59,13.59,0,0,0,9.6,8.7,6.068,6.068,0,0,1,3.648,2.961,28.255,28.255,0,0,0,8.849,10.82,5.2,5.2,0,0,1,2.086,3.717c-.011,1.708-2.844,2.916-2.874,2.927-3.743,1.572-7.657,3.084-11.632,4.5A5.7,5.7,0,0,1-799.308-359.892Zm56.853-53.788-1.224-.333c-5.941-1.615-8.221-6.045-9.892-10.07l-.261-.641a10.546,10.546,0,0,0-1.517-2.9,3.18,3.18,0,0,0-2.66-1.277,4.941,4.941,0,0,0-3.608,1.961c-8.545,10.206-20.356,12.276-31.844,12.989l-1.016.064-.042-1.016c-.452-10.509,3.134-18.395,10.661-23.431,9.405-6.3,19.605-6.566,29.505-.772,8.346,4.885,12.249,12.789,11.933,24.16Zm1.42,10.751c1.831,1.578,2.754,3.222,2.745,4.893s-.931,3.283-2.751,4.824l-1.642,1.389v-12.523ZM-765.229-375c-1.266.072-2.52.125-3.759.125-4.608,0-8.987-.745-12.786-4.11a16.348,16.348,0,0,1-5.944-11.39c-.215-3.4-.167-6.731-.117-10.259.021-1.516.043-3.049.043-4.6v-.854l.846-.133c7.982-1.245,18.14-3.485,25.9-9.8l.646-.527,3.206,2.751c2.426,2.081,4.738,4.057,6.976,6.116a4.579,4.579,0,0,1,1.144,3.156c.077,4.51.077,8.692,0,12.786A16.77,16.77,0,0,1-765.229-375Zm-.138,15.838a10.842,10.842,0,0,0-2.3,2.581l-.814,1.455-.9-1.4a11.221,11.221,0,0,0-2.2-2.3c-1.847-1.6-3.938-3.413-2.969-7.151l.194-.748h12.041l.117.865C-761.734-362.473-763.665-360.712-765.368-359.158Zm-30.261-45.189v12.526l-1.641-1.391c-1.82-1.54-2.746-3.164-2.751-4.824s.915-3.315,2.743-4.893Zm59.812,54.551c7.67,3.3,11.762,9.762,12.159,19.217.12,2.852.091,5.68.059,8.673-.013,1.378-.027,2.783-.027,4.23v1H-790.89l-.056-.939c-.181-3.1-.159-6.25-.138-9.3.051-8.1.106-16.482-3.672-24.36l-.463-.963,3.746-1.506c2.724-1.1,5.3-2.144,7.982-3.086,1.112-.388,2.642.381,3.376,1.053,1.825,1.668,3.587,3.408,5.348,5.148l2.059,2.025c3.355,3.275,5.145,3.272,8.344.011l.639-.652c2-2.041,4.071-4.148,6.01-6.3a3.846,3.846,0,0,1,4.911-1.131c2.637,1.115,5.3,2.163,7.96,3.211C-741.822-352.27-738.8-351.078-735.817-349.8Zm29.372-112.1a147.472,147.472,0,0,1-5.64,36.183,149.87,149.87,0,0,1-33.8,60.309,4.54,4.54,0,0,1-3.342,1.173c-.258,0-.511-.013-.75-.037a4.321,4.321,0,0,1-3.395-1.8c-.811-1.4-1.16-3.485,1.791-5.451a23.484,23.484,0,0,0,8.4-10.259,5.466,5.466,0,0,1,4.145-3.528,12.876,12.876,0,0,0,9.248-8.66,12.645,12.645,0,0,0-2.235-12.233,9,9,0,0,1-2.269-6.526c.141-6.021-.106-12.425-2.833-18.437-4.856-10.7-13.6-17.32-25.988-19.677l-.849-.162.553-11.922h57Zm-57.071-9.317-.032-.963c-.811-24.2-3.82-45-9.2-63.592l-.277-.963,42.659-12.095.4.623a149.843,149.843,0,0,1,23.62,75.955l.04,1.035Z" transform="translate(1447.67 1228.081)" fill="#0091da" stroke="#fff" stroke-width="5"/>
  </g>
</svg>
